<svg xmlns="http://www.w3.org/2000/svg" viewBox="0 0 900 600" preserveAspectRatio="xMidYMid meet">
  <defs>
    <linearGradient id="bg" x1="0" y1="0" x2="1" y2="1">
      <stop offset="0%" stop-color="#ffe6f0"/>
      <stop offset="100%" stop-color="#f0f7ff"/>
    </linearGradient>
    <linearGradient id="book" x1="0" y1="0" x2="1" y2="1">
      <stop offset="0%" stop-color="#ff7eb9"/>
      <stop offset="100%" stop-color="#ff758f"/>
    </linearGradient>
  </defs>
  <rect width="900" height="600" rx="40" fill="url(#bg)" />
  <circle cx="720" cy="120" r="70" fill="#fff0f6" opacity="0.9" />
  <circle cx="740" cy="100" r="18" fill="#ff7eb9" />
  <circle cx="780" cy="140" r="12" fill="#ffd6e8" />
  <path d="M160 470 C190 410 220 390 260 370 C310 340 360 340 420 370 C480 400 520 440 560 470 C620 515 680 530 750 510 L750 590 L150 590 Z" fill="#d3e0ff" opacity="0.8" />
  <path d="M560 180 C560 140 520 120 460 120 C420 120 380 130 340 156 C320 170 300 190 290 212 C280 238 286 276 306 308 C334 353 380 380 435 386 C500 394 542 360 560 300 Z" fill="#ffd6e8" />
  <path d="M530 210 C530 180 500 165 460 165 C430 165 400 170 370 182 C340 194 316 214 310 238 C304 260 310 292 330 318 C362 357 400 378 445 386 C500 398 520 360 530 310 Z" fill="#ff8fa3" opacity="0.95" />
  <path d="M330 212 C320 238 322 260 334 282 C350 310 372 320 392 320 C430 320 450 302 460 270 C470 240 470 220 460 204 C450 189 430 180 395 176 C360 171 340 180 330 212 Z" fill="#fff" opacity="0.8" />
  <path d="M400 290 C360 282 330 266 320 240" stroke="#ff7eb9" stroke-width="18" stroke-linecap="round" fill="none" />
  <path d="M450 310 C430 340 400 352 358 346" stroke="#ff7eb9" stroke-width="18" stroke-linecap="round" fill="none" />
  <rect x="220" y="325" width="320" height="190" rx="30" fill="url(#book)" />
  <path d="M220 325 L220 515 L540 515 L540 325 Z" fill="#ffb3cc" opacity="0.5" />
  <path d="M250 360 H520" stroke="#fff" stroke-width="18" stroke-linecap="round" />
  <path d="M250 420 H520" stroke="#fff" stroke-width="18" stroke-linecap="round" />
  <path d="M250 470 H460" stroke="#fff" stroke-width="18" stroke-linecap="round" />
  <circle cx="155" cy="160" r="12" fill="#ff9ff3" />
  <circle cx="120" cy="220" r="8" fill="#7f8cda" />
  <circle cx="95" cy="120" r="10" fill="#60c2ff" />
  <circle cx="715" cy="460" r="35" fill="#a3d8ff" opacity="0.9" />
  <circle cx="670" cy="520" r="24" fill="#8ed0ff" />
  <circle cx="790" cy="520" r="16" fill="#ffe6f0" />
  <text x="110" y="100" font-family="Nunito, sans-serif" font-size="54" fill="#2d3a6b" font-weight="800">Learn</text>
  <text x="110" y="160" font-family="Nunito, sans-serif" font-size="38" fill="#2d3a6b">through stories</text>
  <text x="110" y="210" font-family="Nunito, sans-serif" font-size="26" fill="#64748b">Fun lessons, rewards, and progress</text>
</svg>
